<?xml version="1.0" encoding="UTF-8"?>
<svg version="1.1" xmlns="http://www.w3.org/2000/svg" width="665" height="375">
<path d="M0 0 C0.79784912 0.01232666 1.59569824 0.02465332 2.41772461 0.03735352 C3.29364258 0.0431543 4.16956055 0.04895508 5.07202148 0.05493164 C5.97887695 0.09166992 6.88573242 0.1284082 7.82006836 0.16625977 C8.73079102 0.16819336 9.64151367 0.17012695 10.57983398 0.17211914 C17.19270968 0.30369441 17.19270968 0.30369441 19.40698242 1.9699707 C20.98362839 4.02314452 21.90580156 5.978516 22.89428711 8.37329102 C23.29929443 9.34282715 23.70430176 10.31236328 24.12158203 11.3112793 C24.77670776 12.91011963 24.77670776 12.91011963 25.44506836 14.54125977 C26.41357785 16.8681828 27.38234483 19.19499868 28.35131836 21.52172852 C28.89043624 22.8229751 29.42949637 24.12424562 29.96850586 25.42553711 C33.06216805 32.88116703 36.21079483 40.31385202 39.34780884 47.75131226 C41.11532842 51.94346264 42.87983368 56.13688064 44.64428711 60.33032227 C45.25065081 61.77124033 45.85701472 63.21215831 46.46337891 64.65307617 C46.89046143 65.66805176 47.31754395 66.68302734 47.75756836 67.72875977 C47.76565521 67.17165817 47.77374207 66.61455658 47.78207397 66.04057312 C47.86804104 60.24930749 47.96754097 54.45838727 48.07495117 48.66748047 C48.1132664 46.50543004 48.14811476 44.3433153 48.17944336 42.18115234 C48.22503853 39.07569372 48.2830422 35.97067878 48.34350586 32.86547852 C48.35505707 31.8966423 48.36660828 30.92780609 48.37850952 29.92961121 C48.39837921 29.02890396 48.4182489 28.12819672 48.4387207 27.20019531 C48.45204437 26.40743698 48.46536804 25.61467865 48.47909546 24.79789734 C48.75756836 22.72875977 48.75756836 22.72875977 50.75756836 19.72875977 C53.79663086 19.43579102 53.79663086 19.43579102 57.38256836 19.54125977 C58.57108398 19.56833008 59.75959961 19.59540039 60.98413086 19.62329102 C61.89936523 19.6580957 62.81459961 19.69290039 63.75756836 19.72875977 C65.6531263 22.94222991 66.00619401 25.30618223 66.00048828 29.01635742 C66.00510323 30.59787094 66.00510323 30.59787094 66.0098114 32.21133423 C65.99903313 33.90992081 65.99903313 33.90992081 65.98803711 35.64282227 C65.98757889 36.80880951 65.98712067 37.97479675 65.98664856 39.17611694 C65.98362885 41.63898741 65.97575096 44.10185602 65.96337891 46.56469727 C65.94510578 50.34601562 65.94286937 54.12708934 65.94311523 57.90844727 C65.93820061 60.29907439 65.93237254 62.68969986 65.92553711 65.08032227 C65.92442429 66.21676178 65.92331146 67.35320129 65.92216492 68.52407837 C65.91578506 69.57211639 65.90940521 70.62015442 65.90283203 71.69995117 C65.89902023 72.62498444 65.89520844 73.5500177 65.89128113 74.50308228 C65.75756836 76.72875977 65.75756836 76.72875977 64.75756836 78.72875977 C59.6275272 80.43877349 54.25353564 80.0398888 48.88256836 80.10375977 C47.1055957 80.15983398 47.1055957 80.15983398 45.29272461 80.21704102 C36.65734191 80.30466046 36.65734191 80.30466046 32.67553711 77.75610352 C30.26223166 73.94691467 28.54298843 70.12171497 26.94506836 65.91625977 C25.89319336 63.21438477 24.84131836 60.51250977 23.75756836 57.72875977 C13.19756836 57.39875977 2.63756836 57.06875977 -8.24243164 56.72875977 C-8.57243164 58.70875977 -8.90243164 60.68875977 -9.24243164 62.72875977 C-10.32127479 65.60556512 -11.72709707 68.3029485 -13.11743164 71.04125977 C-13.64530273 72.13277344 -13.64530273 72.13277344 -14.18383789 73.24633789 C-16.8705613 78.60480299 -16.8705613 78.60480299 -20.24243164 79.72875977 C-21.71829779 79.84563314 -23.19949776 79.90377719 -24.67993164 79.91625977 C-25.44176758 79.93043945 -26.20360352 79.94461914 -26.98852539 79.95922852 C-29.47590479 79.70488643 -31.0905127 78.96893173 -33.24243164 77.72875977 C-32.70769173 72.69965824 -31.58100152 68.70076666 -29.49243164 64.10375977 C-27.03211897 58.65222485 -24.84673292 53.1393492 -22.71459961 47.55102539 C-20.11140302 40.76050688 -17.39385011 34.01489464 -14.67626953 27.26953125 C-14.00745681 25.60593949 -13.34147746 23.94120606 -12.67822266 22.27539062 C-11.70486544 19.83138391 -10.72266505 17.39109761 -9.73852539 14.95141602 C-9.44674911 14.2138356 -9.15497284 13.47625519 -8.85435486 12.71632385 C-4.24630567 1.37999156 -4.24630567 1.37999156 0 0 Z M7.75756836 17.72875977 C6.24872623 21.16244571 4.75203435 24.60129526 3.25756836 28.04125977 C2.61368164 29.50595703 2.61368164 29.50595703 1.95678711 31.00024414 C1.34770508 32.40693359 1.34770508 32.40693359 0.72631836 33.84204102 C0.34926758 34.70611572 -0.0277832 35.57019043 -0.41625977 36.46044922 C-1.41354675 38.7962208 -1.41354675 38.7962208 -1.24243164 41.72875977 C5.02756836 41.72875977 11.29756836 41.72875977 17.75756836 41.72875977 C15.82842983 35.94134417 13.86716634 30.29840369 11.57006836 24.66625977 C11.29743164 23.99143555 11.02479492 23.31661133 10.74389648 22.62133789 C10.08421525 20.98949483 9.42125415 19.35897825 8.75756836 17.72875977 C8.42756836 17.72875977 8.09756836 17.72875977 7.75756836 17.72875977 Z " fill="#144370" transform="translate(208.242431640625,147.271240234375)"/>
<path d="M0 0 C1.0725 -0.02578125 2.145 -0.0515625 3.25 -0.078125 C4.61125 0.08429688 4.61125 0.08429688 6 0.25 C8.45286296 3.92929445 8.23228878 5.72377907 8.1953125 10.10546875 C8.19031738 11.31614014 8.18532227 12.52681152 8.18017578 13.77416992 C8.15286377 16.08251831 8.15286377 16.08251831 8.125 18.4375 C8.08375 23.325625 8.0425 28.21375 8 33.25 C17.9 33.25 27.8 33.25 38 33.25 C37.98839844 30.95160156 37.97679687 28.65320313 37.96484375 26.28515625 C37.95705291 24.06779112 37.95097631 21.85042749 37.94506836 19.63305664 C37.9400286 18.08780234 37.9331968 16.54255284 37.92456055 14.99731445 C37.91247924 12.78074971 37.90676827 10.56424782 37.90234375 8.34765625 C37.89718246 7.6528566 37.89202118 6.95805695 37.88670349 6.24220276 C37.88650723 4.5777067 37.93810871 2.91334501 38 1.25 C39.80746134 -0.55746134 42.50445781 0.07696517 44.9375 0.0625 C46.01902344 0.04832031 47.10054688 0.03414062 48.21484375 0.01953125 C51 0.25 51 0.25 53 2.25 C53.18765773 4.65926234 53.25200981 6.95248397 53.22705078 9.36181641 C53.22734283 10.09362625 53.22763489 10.8254361 53.22793579 11.579422 C53.22654001 14.00358854 53.2109674 16.42744951 53.1953125 18.8515625 C53.19158325 20.53022087 53.18873586 22.20888141 53.18673706 23.88754272 C53.17909369 28.30991607 53.15943922 32.73215845 53.1373291 37.15447998 C53.11688579 41.66546863 53.10773859 46.1764784 53.09765625 50.6875 C53.07619394 59.54172427 53.04204955 68.39585125 53 77.25 C48.63426479 79.5424236 45.93457872 79.56330659 41 79.25 C40.01 78.59 39.02 77.93 38 77.25 C37.65942383 74.17724609 37.65942383 74.17724609 37.70703125 70.2734375 C37.71127609 69.58819 37.71552094 68.9029425 37.71989441 68.19692993 C37.73670247 66.00588871 37.77435595 63.81576368 37.8125 61.625 C37.82754421 60.14063827 37.84123307 58.65626215 37.85351562 57.171875 C37.88406313 53.53061214 37.942773 49.89133277 38 46.25 C28.1 46.25 18.2 46.25 8 46.25 C8.03956744 56.03298659 8.03956744 56.03298659 8.09008789 65.81591797 C8.09258545 67.02908691 8.09508301 68.24225586 8.09765625 69.4921875 C8.10551147 71.36173096 8.10551147 71.36173096 8.11352539 73.26904297 C8 76.25 8 76.25 7 78.25 C4.21398777 79.17867074 2.38933911 79.41342217 -0.5 79.4375 C-1.2734375 79.45167969 -2.046875 79.46585937 -2.84375 79.48046875 C-5 79.25 -5 79.25 -8 77.25 C-8.28672361 74.76574117 -8.3786773 72.53139108 -8.34057617 70.04638672 C-8.34101425 69.3048233 -8.34145233 68.56325989 -8.34190369 67.79922485 C-8.33980979 65.34244669 -8.31645125 62.88634678 -8.29296875 60.4296875 C-8.28737491 58.72861097 -8.28310381 57.02752962 -8.28010559 55.32644653 C-8.26864004 50.8448151 -8.23915835 46.36347441 -8.20599365 41.88195801 C-8.17532948 37.31066827 -8.16160809 32.73933165 -8.14648438 28.16796875 C-8.11429013 19.19518461 -8.06307329 10.22261646 -8 1.25 C-5.27976922 -0.11011539 -3.0338119 0.0437569 0 0 Z " fill="#0A0B0B" transform="translate(301,147.75)"/>
<path d="M0 0 C0.845625 0.556875 1.69125 1.11375 2.5625 1.6875 C3.366875 2.120625 4.17125 2.55375 5 3 C5.89074219 2.54238281 6.78148437 2.08476562 7.69921875 1.61328125 C14.16634217 -1.54757315 22.09269905 -1.06985621 28.953125 0.80859375 C36.47606701 4.14314933 41.14805251 9.81298827 44.4375 17.25 C46.02144693 27.80964621 45.28299713 35.68654399 40.375 45.125 C34.93232448 51.71350194 27.71575907 55.52842409 19.25 56.375 C14.09053455 56.27501036 9.62384776 54.12242192 5 52 C5.02094727 52.55461914 5.04189453 53.10923828 5.06347656 53.68066406 C5.14683548 56.20359023 5.19871868 58.72622649 5.25 61.25 C5.30027344 62.55904297 5.30027344 62.55904297 5.3515625 63.89453125 C5.45018802 70.35450265 5.45018802 70.35450265 3.19921875 73.58203125 C-0.02045499 75.65794878 -2.24559128 75.46106774 -6 75 C-8.68321228 73.88684082 -8.68321228 73.88684082 -11 72 C-11.62818909 69.03991699 -11.62818909 69.03991699 -11.63110352 65.37304688 C-11.63825882 64.7044313 -11.64541412 64.03581573 -11.65278625 63.34693909 C-11.66969525 61.13684755 -11.65026189 58.92877854 -11.62890625 56.71875 C-11.62973477 55.18322583 -11.6321935 53.64770174 -11.63621521 52.11218262 C-11.63907467 48.89401554 -11.6243589 45.67654389 -11.59692383 42.45849609 C-11.56283964 38.33207142 -11.56885719 34.2068904 -11.5875864 30.08040619 C-11.59815195 26.90962345 -11.58922287 23.73913043 -11.57420158 20.56837463 C-11.56901596 19.04692953 -11.56950621 17.52545421 -11.57574654 16.00401306 C-11.58119385 13.87766405 -11.56084411 11.75309886 -11.53344727 9.62695312 C-11.5241494 7.81185242 -11.5241494 7.81185242 -11.5146637 5.96008301 C-11 3 -11 3 -9.1815033 1.10925293 C-5.96469166 -0.5264346 -3.55734715 -0.37445759 0 0 Z M9 15 C5.57161758 18.6088236 4.13472695 21.24854969 3.75 26.25 C4.1355426 32.03313894 5.7697049 35.6232412 9.625 39.9375 C13.92427518 42.56483483 17.08228445 43.09966806 22 42 C25.31079966 40.27782183 27.42312687 37.94397422 29.375 34.75 C30.57473206 29.47117892 30.64824315 24.8082572 28.8125 19.6875 C26.14022873 15.72516674 23.69428435 13.55248403 19.125 12.0625 C15.00731789 11.98014636 12.58844093 13.00642171 9 15 Z " fill="#0A0A0A" transform="translate(447,171)"/>
<path d="M0 0 C5.84492569 5.23386527 8.33149501 11.41724071 10 19 C10.1875 22.625 10.1875 22.625 10 26 C8 28 8 28 4.46826172 28.22705078 C2.95536669 28.22673363 1.44244912 28.21540633 -0.0703125 28.1953125 C-0.86654022 28.1924826 -1.66276794 28.18965271 -2.48312378 28.18673706 C-5.03056763 28.1755264 -7.57766211 28.15042062 -10.125 28.125 C-11.85025535 28.11497133 -13.57551619 28.10584528 -15.30078125 28.09765625 C-19.53398914 28.07558422 -23.7669353 28.04104867 -28 28 C-25.54699472 33.44818367 -25.54699472 33.44818367 -21 37 C-14.71309004 38.62592499 -11.17647436 37.65209726 -5.39453125 34.8125 C-2.48975566 33.82686652 -0.90838228 34.12748532 2 35 C4.3125 36.25 4.3125 36.25 6 38 C6.625 40.375 6.625 40.375 6 43 C0.02291289 48.97708711 -6.67442988 52.07844631 -15.125 52.3125 C-23.15204703 52.21617544 -30.51542942 49.51328661 -36.39453125 43.94140625 C-42.33060517 36.76323413 -44.94779617 29.32368204 -44.44921875 20.0390625 C-43.24078222 11.86372666 -39.11881546 5.48583455 -33 0 C-23.2208955 -6.54462313 -9.71578508 -7.03116026 0 0 Z M-26.875 13 C-28.24513062 15.05333861 -28.24513062 15.05333861 -28 18 C-20.74 17.67 -13.48 17.34 -6 17 C-8.14868239 11.62829401 -9.07447057 10.60763323 -14 8 C-19.12248926 7.10356438 -23.38292443 9.27511939 -26.875 13 Z " fill="#090A0A" transform="translate(402,175)"/>
<path d="M0 0 C1.45599609 0.00580078 1.45599609 0.00580078 2.94140625 0.01171875 C5.4375 0.3125 5.4375 0.3125 7.4375 2.3125 C7.68473816 5.34887695 7.68473816 5.34887695 7.68041992 9.30078125 C7.68231827 10.01962494 7.68421661 10.73846863 7.68617249 11.47909546 C7.68988472 13.86117371 7.67916979 16.24294873 7.66796875 18.625 C7.66677707 20.2764482 7.66632376 21.92789709 7.6665802 23.5793457 C7.66501456 27.04284906 7.65671884 30.50624918 7.64331055 33.96972656 C7.62632059 38.41539797 7.62249617 42.86095582 7.62325573 47.30665588 C7.62298415 50.71749969 7.61750482 54.12831854 7.61025429 57.53915405 C7.60706599 59.17865815 7.60509984 60.81816509 7.60436058 62.45767212 C7.60219872 64.74657027 7.59345784 67.03534665 7.58276367 69.32421875 C7.57704597 71.28041138 7.57704597 71.28041138 7.57121277 73.27612305 C7.4375 76.3125 7.4375 76.3125 6.4375 78.3125 C1.98387515 79.79704162 -1.85015387 79.99950686 -6.25061035 78.23400879 C-8.5625 76.3125 -8.5625 76.3125 -9.18395996 73.20056152 C-9.18190552 71.91943481 -9.17985107 70.63830811 -9.17773438 69.31835938 C-9.18328339 68.61072952 -9.1888324 67.90309967 -9.19454956 67.17402649 C-9.2063642 64.83407952 -9.18205593 62.49606158 -9.15625 60.15625 C-9.15453929 58.53104745 -9.15460417 56.90584214 -9.15637207 55.28063965 C-9.15471782 51.87416189 -9.13600152 48.46834144 -9.10449219 45.06201172 C-9.06481364 40.69360669 -9.06044608 36.32606293 -9.06795502 31.9575119 C-9.07102328 28.60146176 -9.05890945 25.24560559 -9.04182434 21.88960266 C-9.03478852 20.2788464 -9.03167051 18.66806815 -9.03251648 17.05729675 C-9.03072043 14.80667323 -9.0093572 12.55708528 -8.98242188 10.30664062 C-8.97400269 9.02551392 -8.9655835 7.74438721 -8.95690918 6.42443848 C-8.5625 3.3125 -8.5625 3.3125 -7.20056152 1.39807129 C-4.79133322 -0.19856537 -2.85830168 -0.04947793 0 0 Z " fill="#080808" transform="translate(422.5625,147.6875)"/>
<path d="M0 0 C3.0390625 -0.29296875 3.0390625 -0.29296875 6.625 -0.1875 C7.81351562 -0.16042969 9.00203125 -0.13335937 10.2265625 -0.10546875 C11.14179688 -0.07066406 12.05703125 -0.03585938 13 0 C14.89555794 3.21347014 15.24862565 5.57742246 15.24291992 9.28759766 C15.24599655 10.34194 15.24907318 11.39628235 15.25224304 12.48257446 C15.24505753 13.61496552 15.23787201 14.74735657 15.23046875 15.9140625 C15.22978142 17.66304337 15.22978142 17.66304337 15.2290802 19.44735718 C15.22606049 21.91022765 15.2181826 24.37309625 15.20581055 26.8359375 C15.18753742 30.61725585 15.18530101 34.39832958 15.18554688 38.1796875 C15.18063226 40.57031463 15.17480418 42.96094009 15.16796875 45.3515625 C15.16685593 46.48800201 15.1657431 47.62444153 15.16459656 48.7953186 C15.15821671 49.84335663 15.15183685 50.89139465 15.14526367 51.97119141 C15.13954597 53.3587413 15.13954597 53.3587413 15.13371277 54.77432251 C15 57 15 57 14 59 C11.05173237 59.98275588 9.07347496 60.13414725 6 60.125 C4.700625 60.12886719 4.700625 60.12886719 3.375 60.1328125 C1 60 1 60 -2 59 C-2.04633306 51.75034756 -2.08187408 44.50072703 -2.10362434 37.25095654 C-2.1140632 33.88461771 -2.12822409 30.51838015 -2.15087891 27.15209961 C-2.17507811 23.28236185 -2.18647192 19.41276824 -2.1953125 15.54296875 C-2.21079636 13.72879707 -2.21079636 13.72879707 -2.22659302 11.87797546 C-2.22674408 10.75703995 -2.22689514 9.63610443 -2.22705078 8.48120117 C-2.231492 7.49302902 -2.23593323 6.50485687 -2.24050903 5.48674011 C-2 3 -2 3 0 0 Z " fill="#51C557" transform="translate(259,167)"/>
<path d="M0 0 C1.0725 -0.02578125 2.145 -0.0515625 3.25 -0.078125 C4.61125 0.08429688 4.61125 0.08429688 6 0.25 C8.45286296 3.92929445 8.23228878 5.72377907 8.1953125 10.10546875 C8.19031738 11.31614014 8.18532227 12.52681152 8.18017578 13.77416992 C8.15286377 16.08251831 8.15286377 16.08251831 8.125 18.4375 C8.08375 23.325625 8.0425 28.21375 8 33.25 C17.9 33.25 27.8 33.25 38 33.25 C38 23.35 38 13.45 38 3.25 C38.33 3.25 38.66 3.25 39 3.25 C39 13.81 39 24.37 39 35.25 C28.11 35.25 17.22 35.25 6 35.25 C5.67 24.36 5.34 13.47 5 2.25 C1.7 2.25 -1.6 2.25 -5 2.25 C-6.33128112 3.35557617 -6.33128112 3.35557617 -6.12025452 6.14161682 C-6.11803391 7.43623337 -6.11581329 8.73084991 -6.11352539 10.06469727 C-6.11367142 10.77685394 -6.11381744 11.48901062 -6.1139679 12.2227478 C-6.1132687 14.58733112 -6.10547606 16.95183661 -6.09765625 19.31640625 C-6.09579209 20.95165463 -6.09436818 22.58690357 -6.09336853 24.22215271 C-6.08954318 28.53434785 -6.07971275 32.84650952 -6.06866455 37.15869141 C-6.0584508 41.55565946 -6.05387099 45.95263289 -6.04882812 50.34960938 C-6.03809049 58.98308831 -6.02101387 67.61654 -6 76.25 C-2.37 76.25 1.26 76.25 5 76.25 C5.33 66.02 5.66 55.79 6 45.25 C16.89 45.25 27.78 45.25 39 45.25 C39 55.15 39 65.05 39 75.25 C38.67 75.25 38.34 75.25 38 75.25 C38 65.68 38 56.11 38 46.25 C28.1 46.25 18.2 46.25 8 46.25 C8.03956744 56.03298659 8.03956744 56.03298659 8.09008789 65.81591797 C8.09258545 67.02908691 8.09508301 68.24225586 8.09765625 69.4921875 C8.10551147 71.36173096 8.10551147 71.36173096 8.11352539 73.26904297 C8 76.25 8 76.25 7 78.25 C4.21398777 79.17867074 2.38933911 79.41342217 -0.5 79.4375 C-1.2734375 79.45167969 -2.046875 79.46585937 -2.84375 79.48046875 C-5 79.25 -5 79.25 -8 77.25 C-8.28672361 74.76574117 -8.3786773 72.53139108 -8.34057617 70.04638672 C-8.34101425 69.3048233 -8.34145233 68.56325989 -8.34190369 67.79922485 C-8.33980979 65.34244669 -8.31645125 62.88634678 -8.29296875 60.4296875 C-8.28737491 58.72861097 -8.28310381 57.02752962 -8.28010559 55.32644653 C-8.26864004 50.8448151 -8.23915835 46.36347441 -8.20599365 41.88195801 C-8.17532948 37.31066827 -8.16160809 32.73933165 -8.14648438 28.16796875 C-8.11429013 19.19518461 -8.06307329 10.22261646 -8 1.25 C-5.27976922 -0.11011539 -3.0338119 0.0437569 0 0 Z " fill="#0E1310" transform="translate(301,147.75)"/>
<path d="M0 0 C3.0625 1.9375 3.0625 1.9375 5 5 C6.03945854 9.75058323 5.669717 12.94141507 3.0625 17.0625 C-1.06984844 19.67684289 -4.2358483 19.90622451 -9 19 C-12.05890258 17.47054871 -13.49089112 16.41586492 -14.66015625 13.1640625 C-15.46484859 9.08591298 -15.17695719 7.33560846 -13.1875 3.5625 C-9.45533816 -0.80946101 -5.49283957 -0.80498511 0 0 Z " fill="#2996D4" transform="translate(270,145)"/>
<path d="M0 0 C3.0390625 -0.29296875 3.0390625 -0.29296875 6.625 -0.1875 C7.81351562 -0.16042969 9.00203125 -0.13335937 10.2265625 -0.10546875 C11.14179688 -0.07066406 12.05703125 -0.03585938 13 0 C14.89555794 3.21347014 15.24862565 5.57742246 15.24291992 9.28759766 C15.24599655 10.34194 15.24907318 11.39628235 15.25224304 12.48257446 C15.24505753 13.61496552 15.23787201 14.74735657 15.23046875 15.9140625 C15.22978142 17.66304337 15.22978142 17.66304337 15.2290802 19.44735718 C15.22606049 21.91022765 15.2181826 24.37309625 15.20581055 26.8359375 C15.18753742 30.61725585 15.18530101 34.39832958 15.18554688 38.1796875 C15.18063226 40.57031463 15.17480418 42.96094009 15.16796875 45.3515625 C15.16685593 46.48800201 15.1657431 47.62444153 15.16459656 48.7953186 C15.15821671 49.84335663 15.15183685 50.89139465 15.14526367 51.97119141 C15.13954597 53.3587413 15.13954597 53.3587413 15.13371277 54.77432251 C15 57 15 57 14 59 C11.05173237 59.98275588 9.07347496 60.13414725 6 60.125 C4.700625 60.12886719 4.700625 60.12886719 3.375 60.1328125 C1 60 1 60 -2 59 C-2.04633306 51.75034756 -2.08187408 44.50072703 -2.10362434 37.25095654 C-2.1140632 33.88461771 -2.12822409 30.51838015 -2.15087891 27.15209961 C-2.17507811 23.28236185 -2.18647192 19.41276824 -2.1953125 15.54296875 C-2.21079636 13.72879707 -2.21079636 13.72879707 -2.22659302 11.87797546 C-2.22674408 10.75703995 -2.22689514 9.63610443 -2.22705078 8.48120117 C-2.231492 7.49302902 -2.23593323 6.50485687 -2.24050903 5.48674011 C-2 3 -2 3 0 0 Z M1 3 C0.70033657 5.41959017 0.70033657 5.41959017 0.75708008 8.26000977 C0.75400345 9.35777237 0.75092682 10.45553497 0.74775696 11.58656311 C0.75494247 12.77616135 0.76212799 13.96575958 0.76953125 15.19140625 C0.76998947 16.40698715 0.77044769 17.62256805 0.7709198 18.87498474 C0.77394504 21.44816055 0.78183937 24.02133448 0.79418945 26.59448242 C0.81243947 30.54938184 0.81469925 34.50404727 0.81445312 38.45898438 C0.81936831 40.95312704 0.82519664 43.44726811 0.83203125 45.94140625 C0.83314407 47.13302872 0.8342569 48.32465118 0.83540344 49.55238342 C0.84178329 50.64699387 0.84816315 51.74160431 0.85473633 52.86938477 C0.85854813 53.83820084 0.86235992 54.80701691 0.86628723 55.80519104 C0.75519266 57.97612578 0.75519266 57.97612578 2 59 C7.21363851 59.45099809 7.21363851 59.45099809 12.10498047 58.03198242 C15.0754916 54.84677704 14.51140054 51.28606057 14.42578125 47.16015625 C14.42249313 46.28282333 14.41920502 45.40549042 14.41581726 44.50157166 C14.4000545 41.68805108 14.35606905 38.87571257 14.3125 36.0625 C14.30100543 34.20248384 14.29122122 32.34245627 14.28320312 30.48242188 C14.6509946 16.62289725 14.6509946 16.62289725 13 3 C9.00671247 0.33780831 4.62773035 -0.62773035 1 3 Z " fill="#46A358" transform="translate(259,167)"/>
<path d="M0 0 C0.99 0 1.98 0 3 0 C3 22.77 3 45.54 3 69 C6.3 69 9.6 69 13 69 C13 69.33 13 69.66 13 70 C11.20991533 70.22151549 9.41781838 70.42682213 7.625 70.625 C6.62726563 70.74101562 5.62953125 70.85703125 4.6015625 70.9765625 C3.31378906 70.98816406 3.31378906 70.98816406 2 71 C0 69 0 69 -0.24050903 66.13998413 C-0.23606781 64.91864777 -0.23162659 63.6973114 -0.22705078 62.43896484 C-0.22734283 61.76567642 -0.22763489 61.092388 -0.22793579 60.3986969 C-0.22654047 58.16931346 -0.21097016 55.94026268 -0.1953125 53.7109375 C-0.19158308 52.16680077 -0.18873577 50.62266167 -0.18673706 49.07852173 C-0.17909499 45.01124557 -0.15944168 40.94411189 -0.1373291 36.87689209 C-0.11688296 32.7278435 -0.10773799 28.57877193 -0.09765625 24.4296875 C-0.07619625 16.28639289 -0.04205349 8.14321416 0 0 Z " fill="#070707" transform="translate(436,174)"/>
<path d="M0 0 C6.625 -0.25 6.625 -0.25 10 2 C12.2781068 11.46230708 11.25327721 22.54022131 11.29516602 32.25756836 C11.30682205 34.14371154 11.32748114 36.02981845 11.35668945 37.91577148 C11.39909571 40.66412361 11.41547976 43.41151901 11.42578125 46.16015625 C11.44328934 47.00385269 11.46079742 47.84754913 11.47883606 48.71681213 C11.45716485 54.50869372 11.45716485 54.50869372 9.10717773 57.03417969 C5.62754128 58.62906346 2.78968983 58.18948449 -1 58 C-1.33 57.34 -1.66 56.68 -2 56 C1.3 56 4.6 56 8 56 C8 38.18 8 20.36 8 2 C5.03 2 2.06 2 -1 2 C-0.67 1.34 -0.34 0.68 0 0 Z " fill="#50B357" transform="translate(262,168)"/>
<path d="M0 0 C3.0625 1.9375 3.0625 1.9375 5 5 C6.03945854 9.75058323 5.669717 12.94141507 3.0625 17.0625 C-1.06984844 19.67684289 -4.2358483 19.90622451 -9 19 C-12.05890258 17.47054871 -13.49089112 16.41586492 -14.66015625 13.1640625 C-15.46484859 9.08591298 -15.17695719 7.33560846 -13.1875 3.5625 C-9.45533816 -0.80946101 -5.49283957 -0.80498511 0 0 Z M-11 5 C-12.29524348 6.09354906 -12.29524348 6.09354906 -12.375 8.75 C-12.24475392 12.14801943 -12.24475392 12.14801943 -9.9375 14.9375 C-7.10359033 17.3369117 -7.10359033 17.3369117 -3.375 17.0625 C-0.04801783 16.24290062 -0.04801783 16.24290062 2 14.375 C3.46981805 10.88418213 2.98413921 8.60851044 2 5 C0.30835778 2.95970404 0.30835778 2.95970404 -2 2 C-6.29713755 2 -7.55393517 2.67157782 -11 5 Z " fill="#2D8CBE" transform="translate(270,145)"/>
<path d="M0 0 C0.33 0 0.66 0 1 0 C1 22.77 1 45.54 1 69 C4.3 69 7.6 69 11 69 C11 69.33 11 69.66 11 70 C9.20991533 70.22151549 7.41781838 70.42682213 5.625 70.625 C4.62726563 70.74101562 3.62953125 70.85703125 2.6015625 70.9765625 C1.31378906 70.98816406 1.31378906 70.98816406 0 71 C-2 69 -2 69 -2.125 65.875 C-2.08375 64.92625 -2.0425 63.9775 -2 63 C-1.67 63 -1.34 63 -1 63 C-0.67 42.21 -0.34 21.42 0 0 Z " fill="#010101" transform="translate(438,174)"/>
<path d="M0 0 C6.625 -0.25 6.625 -0.25 10 2 C12.01579024 10.89409739 11.1039278 20.90054357 11 30 C10.34 30.33 9.68 30.66 9 31 C8.15156826 24.43300475 7.87438854 18.05449407 7.9375 11.4375 C7.94201172 10.52419922 7.94652344 9.61089844 7.95117188 8.66992188 C7.96281238 6.44658548 7.98074153 4.22328346 8 2 C5.03 2 2.06 2 -1 2 C-0.67 1.34 -0.34 0.68 0 0 Z " fill="#59BB5C" transform="translate(262,168)"/>
<path d="M0 0 C3.50343434 0.80458619 5.10987643 2.65215722 7.16015625 5.49609375 C7.16015625 6.48609375 7.16015625 7.47609375 7.16015625 8.49609375 C4.16015625 7.49609375 4.16015625 7.49609375 2.41015625 5.37109375 C0.19216547 3.11598426 0.19216547 3.11598426 -3.40234375 3.49609375 C-7.14154566 4.58386158 -7.87538155 5.29091858 -9.83984375 8.49609375 C-10.49984375 8.49609375 -11.15984375 8.49609375 -11.83984375 8.49609375 C-12.16984375 9.81609375 -12.49984375 11.13609375 -12.83984375 12.49609375 C-12.60023099 8.42267675 -12.15661801 5.96135595 -9.83984375 2.55859375 C-6.30048089 0.12528178 -4.21677829 -0.23230999 0 0 Z " fill="#2E86B8" transform="translate(267.83984375,144.50390625)"/>
<path d="M0 0 C2 2 2 2 3 6 C-5.91 6 -14.82 6 -24 6 C-24 5.67 -24 5.34 -24 5 C-15.97667603 4.09958689 -8.07029553 3.88452677 0 4 C-0.33 3.01 -0.66 2.02 -1 1 C-0.67 0.67 -0.34 0.34 0 0 Z " fill="#101112" transform="translate(396,188)"/>
<path d="M0 0 C0.66 0.99 1.32 1.98 2 3 C1.25 6.125 1.25 6.125 0 9 C-0.99 9.495 -0.99 9.495 -2 10 C-3.05352843 12.30965848 -4.05719096 14.6429774 -5 17 C-6.15957207 13.52128379 -5.77456651 12.65780355 -4.5625 9.3125 C-4.27503906 8.50425781 -3.98757812 7.69601563 -3.69140625 6.86328125 C-3.46324219 6.24839844 -3.23507813 5.63351563 -3 5 C-2.34 5 -1.68 5 -1 5 C-0.67 3.35 -0.34 1.7 0 0 Z " fill="#113E67" transform="translate(210,172)"/>
<path d="M0 0 C1.5625 1.25 1.5625 1.25 3 3 C2.67 4.32 2.34 5.64 2 7 C-2.29 7 -6.58 7 -11 7 C-11 6.01 -11 5.02 -11 4 C-10.67 4.33 -10.34 4.66 -10 5 C-8.31816052 5.23287008 -6.6287584 5.41264166 -4.9375 5.5625 C-4.01839844 5.64628906 -3.09929687 5.73007813 -2.15234375 5.81640625 C-1.08693359 5.90728516 -1.08693359 5.90728516 0 6 C0 4.02 0 2.04 0 0 Z " fill="#124165" transform="translate(254,218)"/>
<path d="M0 0 C0.66 0.33 1.32 0.66 2 1 C1.01 2.98 0.02 4.96 -1 7 C-1.66 7 -2.32 7 -3 7 C-3.33 8.32 -3.66 9.64 -4 11 C-3.56179109 6.44262737 -3.14958831 3.42346555 0 0 Z " fill="#2A81AA" transform="translate(259,146)"/>
</svg>
